{"title":"Solo A Star Wars Story 2018 720p BluRay AC3 5.1 x264 ESub [MW]","magnet":"magnet:?xt=urn:btih:d7952bb9fc6296110753d21ace0c3026a882ddc1&dn=Solo+A+Star+Wars+Story+2018+720p+BluRay+AC3+5.1+x264+ESub+%5BMW%5D&tr=udp%3A%2F%2Ftracker.leechers-paradise.org%3A6969&tr=udp%3A%2F%2Fzer0day.ch%3A1337&tr=udp%3A%2F%2Fopen.demonii.com%3A1337&tr=udp%3A%2F%2Ftracker.coppersurfer.tk%3A6969&tr=udp%3A%2F%2Fexodus.desync.com%3A6969","uploader":"MFreaky","categoryP":"video","categoryS":"hd___movies","size":"1612786367","seeders":"8","leechers":"24","description":" <a href=\"https://pichub.site/image/DHOT4\" rel=\"nofollow\" target=\"_NEW\">https://pichub.site/image/DHOT4</a> <a href=\"\nhttps://pichub.site/image/DHIxt\" rel=\"nofollow\" target=\"_NEW\">\nhttps://pichub.site/image/DHIxt</a> <a href=\"\nhttps://pichub.site/image/DHSDp\" rel=\"nofollow\" target=\"_NEW\">\nhttps://pichub.site/image/DHSDp</a> <a href=\"\nhttps://pichub.site/image/DHDmy\" rel=\"nofollow\" target=\"_NEW\">\nhttps://pichub.site/image/DHDmy</a> <a href=\"\nhttps://pichub.site/image/DH7Y0\" rel=\"nofollow\" target=\"_NEW\">\nhttps://pichub.site/image/DH7Y0</a> <a href=\"\nhttps://pichub.site/image/DHEnb\" rel=\"nofollow\" target=\"_NEW\">\nhttps://pichub.site/image/DHEnb</a>\r\n\r\nIMDB <a href=\"\nhttps://www.imdb.com/title/tt3778644/\" rel=\"nofollow\" target=\"_NEW\">\nhttps://www.imdb.com/title/tt3778644/</a>\r\n\r\nVideo\r\nFormat                                   : AVC\r\nFormat/Info                              : Advanced Video Codec\r\nFormat profile                           : High@L4.1\r\nFormat settings                          : CABAC / 4 Ref Frames\r\nFormat settings, CABAC                   : Yes\r\nFormat settings, RefFrames               : 4 frames\r\nCodec ID                                 : V_MPEG4/ISO/AVC\r\nDuration                                 : 2 h 14 min\r\nBit rate                                 : 1 200 kb/s\r\nWidth                                    : 1 280 pixels\r\nHeight                                   : 536 pixels\r\nDisplay aspect ratio                     : 2.40:1\r\nFrame rate mode                          : Constant\r\nFrame rate                               : 23.976 (24000/1001) FPS\r\nColor space                              : YUV\r\nChroma subsampling                       : 4:2:0\r\nBit depth                                : 8 bits\r\nScan type                                : Progressive\r\nBits/(Pixel*Frame)                       : 0.073\r\nStream size                              : 1.14 GiB (76%)\r\nWriting library                          : x264 core 155 r2901 7d0ff22\r\n\r\nAudio\r\nID                                       : 2\r\nFormat                                   : AC-3\r\nFormat/Info                              : Audio Coding 3\r\nCodec ID                                 : A_AC3\r\nDuration                                 : 2 h 14 min\r\nBit rate mode                            : Constant\r\nBit rate                                 : 384 kb/s\r\nChannel(s)                               : 6 channels\r\nChannel positions                        : Front: L C R, Side: L R, LFE\r\nSampling rate                            : 48.0 kHz\r\nFrame rate                               : 31.250 FPS (1536 SPF)\r\nBit depth                                : 16 bits\r\nCompression mode                         : Lossy\r\nStream size                              : 370 MiB (24%)\r\nLanguage                                 : English\r\nService kind                             : Complete Main","last_updated":"2018-09-10T12:14:12.510Z","parsed":{"xt":"urn:btih:d7952bb9fc6296110753d21ace0c3026a882ddc1","dn":"Solo A Star Wars Story 2018 720p BluRay AC3 5.1 x264 ESub [MW]","tr":["udp://exodus.desync.com:6969","udp://open.demonii.com:1337","udp://tracker.coppersurfer.tk:6969","udp://tracker.leechers-paradise.org:6969","udp://zer0day.ch:1337"],"infoHash":"d7952bb9fc6296110753d21ace0c3026a882ddc1","infoHashBuffer":{"type":"Buffer","data":[215,149,43,185,252,98,150,17,7,83,210,26,206,12,48,38,168,130,221,193]},"name":"Solo A Star Wars Story 2018 720p BluRay AC3 5.1 x264 ESub [MW]","announce":["udp://exodus.desync.com:6969","udp://open.demonii.com:1337","udp://tracker.coppersurfer.tk:6969","udp://tracker.leechers-paradise.org:6969","udp://zer0day.ch:1337"],"urlList":[]}}